<?xml version="1.0" encoding="UTF-8"?>
<svg width="20px" height="20px" viewBox="0 0 20 20" version="1.1" xmlns="http://www.w3.org/2000/svg" xmlns:xlink="http://www.w3.org/1999/xlink">
    <title>2B33CADB-13E0-4E1C-8D55-3C3CE76FA03E</title>
    <g id="Dashboard" stroke="none" stroke-width="1" fill="none" fill-rule="evenodd">
        <g id="45_Permission-Management_Permission" transform="translate(-1220, -30)">
            <g id="account" transform="translate(1220, 30)">
                <rect id="Rectangle" x="0" y="0" width="20" height="20"></rect>
                <path d="M10,17 C7.5,17 5.29,15.7809524 4,13.952381 C4.03,12.047619 8,11 10,11 C12,11 15.97,12.047619 16,13.952381 C14.71,15.7809524 12.5,17 10,17 M10,3 C11.6568542,3 13,4.34314575 13,6 C13,7.65685425 11.6568542,9 10,9 C8.34314575,9 7,7.65685425 7,6 C7,4.34314575 8.34314575,3 10,3 M10,0 C4.4771525,0 0,4.4771525 0,10 C0,12.6521649 1.0535684,15.195704 2.92893219,17.0710678 C4.80429597,18.9464316 7.3478351,20 10,20 C12.6521649,20 15.195704,18.9464316 17.0710678,17.0710678 C18.9464316,15.195704 20,12.6521649 20,10 C20,4.47 15.5,0 10,0 Z" id="Shape" fill="#9E9E9E" fill-rule="nonzero"></path>
            </g>
        </g>
    </g>
</svg>