<?xml version="1.0" encoding="UTF-8"?>
<svg width="92px" height="92px" viewBox="0 0 92 92" version="1.1" xmlns="http://www.w3.org/2000/svg" xmlns:xlink="http://www.w3.org/1999/xlink">
    <title>No-data-icon</title>
    <g id="Creator-Portal" stroke="none" stroke-width="1" fill="none" fill-rule="evenodd">
        <g id="17_No_Result_found" transform="translate(-775, -284)" fill-rule="nonzero">
            <g id="No-data-icon" transform="translate(775, 284)">
                <polygon id="Path" fill="#FC9B9B" opacity="0" points="0 0 92 0 92 92 0 92"></polygon>
                <g id="Group" transform="translate(9.2, 9.2)">
                    <polygon id="Path" fill="#D65F5F" opacity="0" points="0 0 73.6 0 73.6 73.6 0 73.6"></polygon>
                    <path d="M0.221797587,14.9457637 C-0.892005857,8.34697715 2.18909026,5.15748772 9.46508596,5.37729542 L22.9583239,5.37729542 C24.093557,5.49358547 24.988796,6.12304126 25.6440411,7.26566279 C26.2613953,8.25227572 26.9548601,9.32789564 27.7244355,10.4925224 L50.016271,10.4925224 C53.5703075,10.4925224 56.8339032,14.117433 59.8070582,21.3672544 L58.5616889,21.3668009 C55.8157022,14.8344653 52.9099568,11.6425224 50.016271,11.6425224 L27.105954,11.6425224 L26.7649839,11.1265197 C25.9903815,9.95428538 25.2918079,8.87074143 24.6464347,7.83774787 C24.1795069,7.02351557 23.6183829,6.61752049 22.8939184,6.52729542 L9.43036026,6.526771 C2.85277104,6.32806215 0.367699313,8.90055901 1.35575788,14.7543635 L1.3680853,14.8534357 L4.69861364,56.2032121 L4.70232593,56.2955401 C4.70232593,60.5508803 6.09662735,63.4278685 8.91530983,65.0877976 L8.69500326,65.509531 L8.64366826,66.2553785 C5.24944004,64.4125293 3.55232593,61.0925832 3.55232593,56.2955401 L0.221797587,14.9457637 Z" id="Path" fill="#6E7577"></path>
                    <path d="M7.66666667,64.6390267 C8.05555741,67.5224742 10.2993313,68.964198 14.3979882,68.964198 L51.7229259,68.964198 C53.4727912,68.964198 55.1542645,68.2232683 56.7673457,66.741409 C62.256028,61.8256012 63.9931594,61.0805863 68.3782676,58.7027742 C70.2544724,57.9248626 71.2251255,56.3322724 71.2902268,53.9250037 L72.8333333,29.4144447 C72.8333333,23.2629657 69.772431,20.3637507 63.6506264,20.7167996 C47.5618805,20.7167996 42.9136485,20.7167996 26.1926246,20.7167996 C19.3053433,20.2294402 15.3737978,23.1286553 14.3979882,29.4144447 C13.30372,40.2427826 12.3867247,49.7908453 11.6470024,58.0586327 C11.1748391,65.4788615 8.97499652,64.6390267 7.66666667,64.6390267 Z M9.53905803,65.6737572 C11.4834582,65.0916105 12.495548,62.832656 12.7946812,58.1316617 C13.5317275,49.8980406 14.4483098,40.3542782 15.5421607,29.5300701 C16.4154373,23.9154035 19.8027566,21.4175139 26.111451,21.8639312 L26.1926246,21.8667996 L45.5832076,21.8667996 L63.6506264,21.8667996 C69.1776985,21.5499602 71.6833333,23.9232388 71.6833333,29.4144447 L70.1424991,53.8527465 C70.0872039,55.8700979 69.3701559,57.0465878 67.9378134,57.6404654 L67.8300884,57.6918343 C67.4205227,57.9139201 66.1207239,58.6135386 66.120813,58.6134905 C65.4889817,58.9545506 65.0340196,59.2039141 64.5984753,59.4495472 C64.1090221,59.7255831 63.6672109,59.9844619 63.2397872,60.2469664 C61.1109295,61.5544157 59.0891927,63.1180955 56.0001085,65.8847602 C54.576966,67.1920076 53.1649608,67.814198 51.7229259,67.814198 L14.3979882,67.814198 C11.5821981,67.814198 9.92268553,67.1341149 9.19617449,65.7589358 C9.30741567,65.7374768 9.41979536,65.7094641 9.53905803,65.6737572 L9.53905803,65.6737572 Z" id="Shape" fill="#6E7577"></path>
                    <path d="M9.2,65.6778494 C9.85011938,67.0630247 11.6249194,67.7556123 14.5244003,67.7556123 L44.0537598,67.7556123 C46.462217,66.9354403 48.4732779,65.8050431 50.0869423,64.3644206 C55.5776095,59.5854083 57.5964076,58.4279145 61.9831017,56.1162714 C63.8599849,55.3600073 64.830989,53.8117353 64.8961138,51.4714553 L66.7,29.3948145 C66.4810496,24.0418942 63.3095652,21.5370462 57.1855469,21.8802705 C41.090983,21.8802705 42.8006626,21.8802705 26.0735921,21.8802705 C19.9737006,21.4300535 16.4755344,23.9349015 15.5790934,29.3948145 C14.4732933,40.4049404 13.5503983,49.9288603 12.8104085,57.9665742 C12.3380746,65.1803153 10.2073594,65.1443774 9.2,65.6778494 Z" id="Path" fill="#F6F8F9"></path>
                    <g transform="translate(31.4333, 38.7336)" fill="#6E7577">
                        <ellipse id="Oval" cx="3.3120529" cy="2.68333333" rx="2.3" ry="2.68333333"></ellipse>
                        <ellipse id="Oval" cx="18.6453862" cy="2.68333333" rx="2.3" ry="2.68333333"></ellipse>
                        <path d="M14.3732193,11.6944193 C15.8877863,11.8438011 17.9164947,12.9984563 20.5231273,15.1472018 L20.7483,15.3330192 L18.9144963,15.3330238 C16.8996442,13.773582 15.3400769,12.9450232 14.3167895,12.8416669 C13.6797158,12.8416669 12.8792068,13.2209069 11.8965652,14.0400009 C10.7531043,14.8485964 9.44942411,14.8485964 8.04379077,14.0415169 C6.83263254,13.1933464 5.89271454,12.9040877 5.21491681,13.1084559 C3.49764611,13.5662187 2.23353882,14.3077968 1.40086123,15.3328 L0,15.3334425 C0.962489357,13.7234558 2.61269512,12.6119837 4.90058217,12.0024096 C5.96773387,11.680136 7.2323569,12.0693224 8.65920192,13.0714541 C9.64948701,13.638112 10.4731072,13.638112 11.1957622,13.1293879 C12.3293289,12.1816652 13.363629,11.6916669 14.3732193,11.6944193 Z" id="Path"></path>
                    </g>
                </g>
            </g>
        </g>
    </g>
</svg>